<?xml version="1.0" encoding="iso-8859-1"?>
<!-- Uploaded to: SVG Repo, www.svgrepo.com, Generator: SVG Repo Mixer Tools -->
<svg version="1.1" id="Layer_1" xmlns="http://www.w3.org/2000/svg" xmlns:xlink="http://www.w3.org/1999/xlink" 
	 viewBox="0 0 511.998 511.998" xml:space="preserve">
<path style="fill:#FFC61B;" d="M115.821,365.224c-11.694,0.001-23.384-4.449-32.283-13.349l-0.106-0.105
	c-16.793-16.796-17.216-42.877-1.026-63.426c29.341-37.24,115.774-156.87,116.644-158.075c0.41-0.566,0.862-1.099,1.356-1.593
	c12.733-12.731,30.949-18.979,48.809-16.754l66.238,5.073c7.213,0.553,12.612,6.848,12.059,14.059
	c-0.551,7.213-6.854,12.595-14.059,12.059l-66.569-5.099c-0.236-0.018-0.47-0.042-0.705-0.073c-9.641-1.264-19.499,1.937-26.56,8.59
	c-8.739,12.092-88.001,121.679-116.636,158.021c-6.518,8.273-9.362,20.353-1.026,28.691l0.105,0.103
	c7.59,7.59,19.944,7.593,27.533,0l46.884-47.086c5.102-5.128,13.397-5.145,18.523-0.039c5.127,5.103,5.145,13.398,0.039,18.523
	l-46.904,47.107C139.223,360.768,127.519,365.224,115.821,365.224z"/>
<path style="fill:#FEE187;" d="M353.726,284.656l-91.735,0.739c-17.986,0-32.568-14.581-32.568-32.568v-0.148
	c0-15.799,11.251-28.966,26.176-31.937H44.95c-17.592,0-31.852,14.261-31.852,31.852v143.963c0,17.592,14.261,31.852,31.852,31.852
	h311.387c17.592,0,31.852-14.261,31.852-31.852V271.682C378.628,279.921,366.429,284.553,353.726,284.656z"/>
<g>
	<path style="fill:#FFC61B;" d="M356.336,441.506H44.95C20.166,441.506,0,421.343,0,396.558V252.594
		c0-24.785,20.166-44.95,44.95-44.95h210.648c6.738,0,12.374,5.11,13.035,11.814c0.66,6.704-3.872,12.815-10.478,14.13
		c-9.06,1.802-15.635,9.831-15.635,19.09v0.148c0,10.735,8.734,19.469,19.469,19.469l91.632-0.739
		c9.533-0.077,18.773-3.556,26.016-9.796c3.88-3.343,9.351-4.117,14.007-1.984c4.656,2.135,7.64,6.786,7.64,11.907v124.875
		C401.286,421.343,381.121,441.506,356.336,441.506z M44.95,233.839c-10.342,0-18.754,8.413-18.754,18.754v143.963
		c0,10.341,8.413,18.752,18.754,18.752h311.385c10.342,0,18.754-8.413,18.754-18.752V294.074c-6.795,2.359-13.973,3.62-21.258,3.679
		l-91.735,0.739c-25.287,0-45.771-20.485-45.771-45.665v-0.148c0-6.664,1.454-13.056,4.085-18.839H44.95V233.839z"/>
	<path style="fill:#FFC61B;" d="M199.949,441.27c-64.345,0-116.695-52.35-116.695-116.695s52.35-116.695,116.695-116.695
		c7.233,0,13.098,5.865,13.098,13.098s-5.865,13.098-13.098,13.098c-49.902,0-90.499,40.597-90.499,90.499
		s40.597,90.499,90.499,90.499s90.5-40.597,90.5-90.499c0-7.233,5.865-13.098,13.098-13.098c7.233,0,13.098,5.865,13.098,13.098
		C316.645,388.92,264.296,441.27,199.949,441.27z"/>
	<path style="fill:#FFC61B;" d="M195.69,380.041c-18.593-0.62-33.776-10.226-33.776-20.141c0-5.268,4.648-13.015,10.536-13.015
		c6.507,0,11.775,9.141,23.24,11.156v-25.1c-14.254-5.423-30.987-12.084-30.987-31.916c0-19.677,14.564-29.127,30.987-31.451v-4.338
		c0-2.169,2.478-4.184,5.888-4.184c2.944,0,5.888,2.014,5.888,4.184v3.873c9.606,0.31,27.732,2.789,27.732,13.479
		c0,4.184-2.789,12.705-9.606,12.705c-5.113,0-8.057-4.958-18.128-5.733v22.62c14.099,5.268,30.522,12.549,30.522,33.465
		c0,19.212-12.395,30.831-30.522,33.776v4.493c0,2.169-2.944,4.184-5.888,4.184c-3.408,0-5.888-2.014-5.888-4.184v-3.873H195.69z
		 M197.239,308.462v-18.438c-6.972,1.395-9.915,4.958-9.915,8.676C187.323,303.194,191.352,305.983,197.239,308.462z
		 M205.915,337.125v20.762c5.268-1.239,9.451-4.183,9.451-9.761C215.366,343.012,211.493,339.759,205.915,337.125z"/>
	<path style="fill:#FFC61B;" d="M262.095,299.531c-25.287,0-45.771-20.485-45.771-45.665v-0.148
		c0-25.181,20.485-45.666,45.665-45.666h98.778c7.233,0,13.098,5.865,13.098,13.098c0,7.233-5.865,13.098-13.098,13.098h-98.778
		c-10.735,0-19.469,8.735-19.469,19.47v0.148c0,10.735,8.734,19.469,19.469,19.469l91.631-0.739
		c10.663-0.085,20.686-4.284,28.225-11.824l66.769-66.769c5.116-5.113,13.407-5.113,18.524,0c5.115,5.115,5.115,13.408,0,18.524
		l-66.769,66.769c-12.431,12.43-28.958,19.354-46.537,19.496L262.095,299.531z"/>
</g>
<rect x="377.779" y="111.736" transform="matrix(0.7071 0.7071 -0.7071 0.7071 232.4679 -262.5471)" style="fill:#FEE187;" width="110.755" height="75.208"/>
<path style="fill:#FFC61B;" d="M445.717,228.189c-3.353,0-6.704-1.28-9.262-3.836l-78.317-78.317
	c-2.456-2.457-3.836-5.788-3.836-9.262s1.38-6.804,3.836-9.262l53.184-53.184c2.457-2.456,5.788-3.836,9.262-3.836
	c3.474,0,6.804,1.381,9.262,3.836l78.317,78.317c5.115,5.115,5.115,13.408,0,18.524l-53.184,53.184
	C452.42,226.909,449.068,228.189,445.717,228.189z M385.924,136.775l59.792,59.792l34.661-34.661l-59.792-59.792L385.924,136.775z"
	/>
</svg>